<?xml version="1.0"?>
<svg width="1024" height="480" xmlns="http://www.w3.org/2000/svg" xmlns:svg="http://www.w3.org/2000/svg" enable-background="new 0 0 1024 480" version="1.1" xml:space="preserve">
 <g class="layer">
  <title>Layer 1</title>
  <path d="m563.47,481c-10.25,-3.47 -19.39,-7.93 -26.94,-15.38c-14.98,-14.77 -18.95,-33.17 -17.38,-53.14c1.27,-16.13 7.6,-30.36 19.67,-41.42c25.74,-23.58 62.51,-19.2 81.85,9.9c14.85,22.33 17.89,57.09 -4.27,81.02c-8.54,9.21 -19.13,14.76 -31.12,18.81c-7.3,0.21 -14.32,0.21 -21.81,0.21m3.98,-10.85c14.08,3.75 25.38,-1.04 33.9,-12.1c18.09,-23.46 14.7,-62.55 -6.81,-83c-13.69,-13.02 -32.58,-11.68 -44.21,3.11c-2.69,3.42 -5.05,7.06 -6.64,11.11c-7.45,19 -7.11,38.15 0.14,56.97c4.18,10.85 11.11,19.77 23.62,23.91z" fill="#000000" id="svg_1" opacity="1"/>
  <path d="m959.47,481c-5.19,-1.54 -9.91,-3.11 -14.64,-4.61c-4.12,-1.31 -5.95,-3.82 -6.36,-8.37c-0.56,-6.16 -0.33,-12.3 -0.67,-18.44c-0.08,-1.44 -0.48,-3.3 1.53,-3.71c1.88,-0.39 2.46,1.31 3.12,2.65c3.83,7.74 8.53,14.62 16.53,18.78c14.93,7.77 28.52,0.05 29.71,-16.85c0.53,-7.41 -1.91,-13.23 -7.44,-18.15c-7.04,-6.25 -15.23,-10.72 -23.12,-15.67c-9.62,-6.04 -15.64,-14.51 -16.28,-26.03c-1.04,-18.5 12.44,-32.99 31.09,-33.85c7.89,-0.37 15.56,1.21 23.23,2.7c2.02,0.39 3.93,0.99 4.09,3.59c0.46,7.47 -0.99,14.78 -1.26,22.29c-3.56,0.18 -3.76,-2.46 -4.64,-4.2c-2.44,-4.84 -5.2,-9.26 -10.35,-11.74c-7.08,-3.4 -15.05,-2.9 -20.17,1.73c-5.91,5.36 -5.34,12.27 -3.68,19.02c1.65,6.72 6.72,10.94 12.41,14.36c6.57,3.95 13.38,7.49 19.39,12.3c18.36,14.72 17.78,44.1 -1.11,58.15c-3.98,2.96 -8.67,4.15 -13.54,5.86c-6,0.19 -11.69,0.19 -17.84,0.19z" fill="#000000" id="svg_2" opacity="1"/>
  <path d="m30.31,437.35c21.9,-30.45 43.37,-60.77 65.33,-90.73c24.53,-33.45 49.58,-66.52 74.25,-99.86c8.82,-11.91 9.12,-8.97 0.49,-21.61c-27.72,-40.58 -55.38,-81.2 -83.28,-121.66c-19.01,-27.56 -38.4,-54.87 -57.62,-82.29c-0.95,-1.37 -2.04,-2.65 -2.9,-4.07c-1.99,-3.26 -3.25,-6.83 -1.24,-10.38c1.91,-3.36 5.55,-3.29 8.92,-3.18c72.8,2.33 145.61,0.52 218.42,1.01c11.98,0.08 23.99,0.5 35.93,-0.12c6.96,-0.36 10.58,2.9 12.69,8.49c2.43,6.45 6.04,11.74 11.63,15.84c2.67,1.96 4.19,5.19 3.51,8.4c-1.87,8.91 2.58,15.32 8.28,20.84c6.59,6.4 9.01,14.18 9.4,22.86c0.28,5.99 0.05,12 0.12,18c0.04,3.37 -0.46,6.34 -4.19,7.64c-3.95,1.38 -7.28,0.2 -9.96,-2.69c-2.04,-2.21 -3.23,-5.02 -4.4,-7.8c-3.61,-8.6 -7.17,-17.22 -10.95,-25.74c-3.23,-7.32 -8.16,-13.23 -14.93,-17.69c-14.7,-9.67 -30.14,-15.12 -48.35,-14.01c-19.22,1.18 -38.59,-0.06 -57.9,-0.16c-17.65,-0.09 -35.3,-0.08 -52.96,-0.11c-2.89,0 -5.82,0.11 -7.49,2.96c-1.65,2.8 0.61,4.77 1.96,6.71c13.68,19.5 27.46,38.94 41.17,58.42c25.03,35.56 50.05,71.13 75.03,106.72c4.31,6.13 4.25,8.77 0.06,14.38c-27.61,36.98 -55.07,74.07 -82.89,110.89c-16.57,21.93 -33.39,43.67 -49.4,66.02c-0.58,0.81 -1.31,1.54 -1.75,2.43c-0.97,1.96 -3.66,3.55 -2.07,6.16c1.4,2.29 4.04,2.04 6.35,2.04c47.49,-0.12 94.99,-0.11 142.48,-0.46c18.61,-0.13 34.09,-8.16 47.18,-20.98c3.99,-3.9 6,-9.17 8.31,-14.16c3.14,-6.8 6.08,-13.7 9.42,-20.4c1.59,-3.18 3.41,-7.33 8.02,-5.93c4.12,1.26 5.44,5.08 5.28,9.27c-0.37,9.31 -0.36,18.66 -1.24,27.92c-1.2,12.46 -0.56,24.96 -1.54,37.43c-1.04,13.26 -0.85,26.62 -1.15,39.94c-0.15,6.84 -1.06,8.21 -7.88,8.97c-5.28,0.58 -10.64,0.67 -15.96,0.67c-93.82,0.05 -187.64,0.06 -281.47,0.05c-2.65,0 -5.4,0.05 -7.93,-0.62c-6.1,-1.62 -8,-6.68 -4.42,-11.85c6.35,-9.18 12.93,-18.19 19.64,-27.56z" fill="#666666" id="svg_3" opacity="1"/>
  <path d="m803.55,73.49c-8.01,4.16 -6.43,11.45 -6.03,17.84c1.37,21.74 2.77,43.49 5,65.15c1.4,13.56 0.94,27.28 3.66,40.72c0.97,4.77 2.83,8.85 7.33,11.31c1.3,0.72 2.79,1.6 2.16,3.46c-0.69,2.03 -2.52,1.81 -4.2,1.77c-10.33,-0.22 -20.65,-0.42 -30.98,-0.66c-1.59,-0.04 -3.67,0.55 -4.34,-1.48c-0.68,-2.06 1.23,-2.96 2.65,-3.7c5.04,-2.61 5.42,-7.23 5.26,-12.01c-0.43,-12.65 -0.75,-25.31 -1.51,-37.94c-1,-16.6 -2.36,-33.19 -3.61,-49.78c-0.13,-1.73 0.26,-3.64 -1.61,-5.73c-3.09,8.11 -6.09,15.8 -8.95,23.55c-10.18,27.65 -20.62,55.21 -32.09,82.37c-0.32,0.76 -0.62,1.54 -0.99,2.29c-0.75,1.55 -1.68,2.96 -3.64,2.99c-2.09,0.03 -2.72,-1.62 -3.36,-3.18c-5.01,-12.34 -10.2,-24.59 -14.63,-37.17c-7.85,-22.3 -16.11,-44.46 -24.21,-66.67c-0.28,-0.75 -0.76,-1.44 -1.41,-2.64c-2.7,6.63 -1.92,13.22 -2.33,19.49c-1.61,24.58 -3.5,49.16 -3.7,73.82c-0.04,5.29 1.08,9.54 6.64,11.49c1.4,0.49 2.85,1.49 2.32,3.34c-0.47,1.69 -2.03,1.33 -3.35,1.33c-7.83,0.03 -15.66,0.13 -23.49,0.1c-1.89,-0.01 -4.37,0.53 -5.08,-2.02c-0.63,-2.26 1.52,-3.14 3.01,-4.07c4.04,-2.51 4.95,-6.75 5.41,-10.79c1.34,-11.9 2.19,-23.85 3.25,-35.78c1.21,-13.58 2.53,-27.15 3.6,-40.74c0.98,-12.43 1.64,-24.88 2.52,-37.32c0.33,-4.69 -2.25,-7.41 -5.92,-9.56c-1.55,-0.9 -3.63,-1.75 -2.87,-4.05c0.66,-2.03 2.76,-1.51 4.34,-1.51c5.83,0.01 11.65,-0.01 17.46,-0.66c3.96,-0.45 6.45,0.98 7.91,5.07c11.93,33.38 24.05,66.7 36.12,100.03c0.61,1.7 1.33,3.37 2.29,5.8c3.47,-6 5.12,-12.01 7.32,-17.76c11.05,-28.93 22.08,-57.87 32.88,-86.89c1.68,-4.52 3.9,-6.24 8.82,-5.75c5.77,0.57 11.65,0.16 17.48,0.2c1.71,0.01 3.5,0.16 3.99,2.21c0.53,2.18 -1.09,2.88 -3.12,3.53z" fill="#000000" id="svg_4" opacity="1"/>
  <path d="m752.91,456.27c0.37,8.07 1.88,15.05 9.66,18.81c0.9,0.44 1.53,1.38 1.24,2.5c-0.36,1.36 -1.53,1.71 -2.74,1.7c-9.99,-0.08 -19.98,-0.18 -29.98,-0.36c-1.27,-0.02 -2.8,-0.22 -3.11,-1.92c-0.28,-1.56 0.7,-2.61 1.96,-3.14c5.41,-2.28 6.27,-6.69 6.1,-11.89c-0.76,-22.47 -3.26,-44.78 -5.5,-67.12c-0.07,-0.76 -0.51,-1.48 -0.94,-2.68c-2.36,2.67 -2.99,5.64 -4.04,8.36c-9.45,24.55 -18.83,49.12 -28.28,73.66c-0.8,2.1 -1.33,4.86 -4.25,4.92c-2.98,0.06 -3.52,-2.79 -4.37,-4.82c-10.53,-25.18 -20.97,-50.41 -31.47,-75.61c-0.79,-1.9 -0.91,-4.23 -3.43,-5.75c-0.45,4.19 -1.01,8.08 -1.25,11.99c-1.14,18.93 -2.15,37.87 -3.32,56.8c-0.33,5.38 0.31,10.02 6.11,12.28c1.07,0.41 2.08,1.24 1.86,2.65c-0.18,1.2 -1.15,1.56 -2.21,1.6c-8.3,0.33 -16.57,1.63 -24.92,1.06c-1.13,-0.08 -2.43,0.03 -2.97,-1.33c-0.52,-1.31 0.09,-2.44 1.14,-3c8.98,-4.73 8.77,-13.56 9.44,-21.74c2.13,-26.19 3.95,-52.4 5.95,-78.6c0.32,-4.19 -0.8,-7.52 -4.49,-9.83c-1.51,-0.95 -3.61,-1.87 -3.01,-4.09c0.7,-2.62 3.22,-1.82 5.09,-1.88c4.99,-0.18 10,0.35 14.96,-0.58c3.74,-0.7 5.83,0.75 7.17,4.36c7.21,19.33 14.5,38.64 21.96,57.88c3.29,8.5 6.08,17.22 10.82,26.42c1.41,-3.21 2.55,-5.51 3.45,-7.9c9.6,-25.38 19.99,-50.45 28.73,-76.15c1.02,-3 2.58,-4.28 5.8,-4.15c5.32,0.21 10.66,0.04 15.99,0.09c2.12,0.02 4.36,-0.11 5.92,1.9c0,2.6 -2.13,3.21 -3.86,4c-3.97,1.8 -4.97,4.98 -4.73,9c0.7,11.45 1.2,22.92 1.97,34.37c1.06,15.92 2.3,31.83 3.55,48.19z" fill="#000000" id="svg_5" opacity="1"/>
  <path d="m431.23,178.78c5.82,10.34 13.55,18.24 24.32,22.56c11.38,4.57 23.18,3.85 34.86,1.37c6.04,-1.28 8.07,-3.9 8.16,-10.19c0.18,-12.15 0.65,-24.32 -0.74,-36.45c-0.44,-3.86 -2.36,-6.47 -5.67,-8.23c-1.39,-0.74 -2.66,-1.62 -2.2,-3.45c0.51,-1.98 2.26,-1.7 3.7,-1.73c9.99,-0.16 19.98,-0.32 29.97,-0.34c1.54,-0.01 3.63,-0.19 4.25,1.83c0.66,2.14 -1.27,2.83 -2.69,3.6c-3.57,1.94 -5.16,5.21 -5.65,8.95c-1.72,13.09 -1.19,26.26 -1.13,39.41c0,0.33 0.06,0.66 0.12,0.99c1.62,8.85 1.69,9.03 -7.05,12.45c-20.73,8.11 -41.89,10.56 -63.48,3.74c-22.21,-7.03 -36.88,-21.8 -44.37,-43.84c-7.23,-21.28 -6.68,-42.53 2.55,-62.81c13.6,-29.9 43.53,-45.94 76.22,-42.69c10.3,1.03 20.26,3.86 30.51,5c2.24,0.25 4.29,1.32 4.3,4.05c0.04,8.5 0.01,16.99 -0.04,25.49c-0.01,1.04 -0.53,1.91 -1.83,2.19c-2.07,-0.32 -2.69,-2.28 -3.44,-3.81c-11,-22.31 -47.41,-29.07 -68.38,-11.64c-18.1,15.03 -22.92,35.11 -21.98,57.37c0.53,12.62 3.37,24.69 9.69,36.18z" fill="#000000" id="svg_6" opacity="1"/>
  <path d="m530.29,211.92c-0.13,-2.56 1.4,-3.76 3.06,-4.48c4.71,-2.04 7.02,-5.96 8.62,-10.46c8.91,-24.92 17.83,-49.84 26.67,-74.78c6.17,-17.42 12.22,-34.88 18.32,-52.32c0.33,-0.94 0.61,-1.91 1.05,-2.8c0.7,-1.46 1.13,-3.36 3.31,-3.2c1.85,0.12 2.29,1.83 2.79,3.17c4.33,11.53 8.63,23.07 12.86,34.64c11.25,30.8 22.98,61.43 33.47,92.5c2.02,5.97 5.53,10.59 11.76,12.7c1.1,0.37 2.11,1 3.15,1.53c1.4,0.69 2.79,1.56 2.23,3.37c-0.48,1.57 -2.06,1.48 -3.39,1.48c-7,0.03 -13.99,-0.01 -20.99,0.05c-4.99,0.04 -10,-0.32 -14.97,0.47c-1.51,0.24 -3.25,0.17 -3.96,-1.4c-0.76,-1.72 0.62,-2.88 1.95,-3.58c4.62,-2.42 5.1,-6.03 3.5,-10.55c-3.57,-10.04 -7.01,-20.12 -10.48,-30.18c-1.18,-3.4 -3.27,-4.89 -7.1,-4.79c-9.66,0.26 -19.34,0.25 -28.99,0c-3.9,-0.1 -5.68,1.45 -6.75,5c-3.02,10.04 -6.25,20.02 -9.46,30c-1.45,4.53 -0.43,7.79 4.26,9.61c1.8,0.69 4.27,1.4 3.65,3.98c-0.61,2.57 -3.21,1.92 -5.08,1.95c-8.98,0.13 -17.96,-1.2 -26.95,-0.13c-1.02,0.12 -1.95,-0.39 -2.53,-1.78m64.5,-86.36c-2.2,-6.45 -4.4,-12.91 -6.6,-19.36c-5.96,14.54 -10.73,28.84 -15.48,43.14c-0.92,2.8 0.65,3.65 3.05,3.65c7.98,0.01 15.96,-0.05 23.94,-0.03c3.92,0 4.41,-1.76 3.13,-5.11c-2.72,-7.13 -5.21,-14.36 -8.04,-22.29z" fill="#000000" id="svg_7" opacity="1"/>
  <path d="m850.09,167c0.08,8.83 0.22,17.15 0.22,25.48c-0.01,5.13 2.69,7.73 7.52,8.15c9.99,0.86 19.92,0.84 29.69,-2.11c3.71,-1.13 5.82,-3.58 7.52,-6.77c0.96,-1.82 1.42,-4.16 3.7,-4.77c1.98,0.56 1.93,1.91 1.86,3.27c-0.32,6.65 -1.29,13.22 -2.2,19.81c-0.53,3.83 -3.15,3.22 -5.56,3.23c-18.66,0.04 -37.31,0 -55.96,0.08c-3.99,0.01 -7.97,0.4 -11.95,0.58c-1.38,0.07 -2.81,-0.08 -3.5,-1.42c-0.8,-1.54 0.42,-2.5 1.47,-3.3c5.42,-4.17 6.79,-9.97 6.78,-16.4c-0.03,-35.47 0,-70.95 -0.08,-106.43c-0.02,-6.1 -0.47,-12.18 -7.59,-14.79c-1.3,-0.48 -2.26,-1.58 -1.91,-3.13c0.37,-1.65 1.81,-1.77 3.17,-1.78c4.67,-0.01 9.33,0.07 13.99,0.01c16.65,-0.22 33.3,0.21 49.94,-0.69c7.09,-0.38 7.13,-0.12 7.09,7.19c-0.01,3.84 -0.02,7.67 -0.11,11.5c-0.04,1.78 0.3,3.72 -1.45,5.11c-2.51,0.17 -2.72,-1.98 -3.41,-3.54c-2.12,-4.8 -5.72,-7.12 -11,-7.06c-7.82,0.1 -15.65,0.19 -23.48,0.03c-3.75,-0.08 -4.92,1.46 -4.88,5.06c0.16,14.65 0.18,29.31 0.11,43.97c-0.02,3.44 1.3,4.79 4.72,4.71c6.66,-0.15 13.32,-0.1 19.98,-0.13c4.33,-0.02 8.32,-0.77 10.79,-4.91c0.55,-0.9 1.41,-1.41 3.18,-0.86c1.33,8.04 1.94,16.34 0.4,24.71c-0.19,1.04 -0.78,1.88 -1.92,1.98c-1.14,0.1 -2.02,-0.59 -2.3,-1.57c-2.17,-7.65 -8.73,-7.3 -14.58,-7.78c-5.13,-0.41 -10.32,-0.01 -15.48,-0.14c-3.38,-0.09 -4.87,1.3 -4.81,4.72c0.11,5.83 0.04,11.66 0.04,17.99z" fill="#000000" id="svg_8" opacity="1"/>
  <path d="m444.63,407c0.04,-10.33 -0.02,-20.16 0.16,-29.98c0.11,-5.81 -1.23,-10.56 -7.18,-12.91c-1.31,-0.52 -2.36,-1.38 -1.96,-3.02c0.29,-1.19 1.33,-1.36 2.36,-1.41c15.28,-0.63 30.64,-1.35 45.77,0.98c15.15,2.34 24.02,11.25 26.28,24.33c2.19,12.67 -3.86,25.65 -16.05,32.91c-7.36,4.39 -7.54,3.74 -2.68,11.45c7.38,11.68 14.81,23.34 22.14,35.05c2.75,4.4 6.16,7.84 11.31,9.23c1.33,0.36 2.75,0.82 2.63,2.49c-0.15,2.01 -1.89,2.06 -3.38,2.15c-13.07,0.77 -24.39,-1.72 -31.24,-14.7c-5.98,-11.33 -12.71,-22.26 -19.13,-33.37c-0.83,-1.44 -1.7,-2.85 -2.64,-4.23c-1.63,-2.37 -4.06,-2 -6.35,-1.57c-2.44,0.45 -2.3,2.55 -2.3,4.37c-0.02,11.16 -0.07,22.32 0.03,33.48c0.05,5.18 2.03,9.37 7.03,11.7c1.3,0.61 3.05,1.24 2.43,3.2c-0.63,2 -2.37,2.02 -4.13,1.77c-9.3,-1.3 -18.57,-0.21 -27.85,0.28c-1.72,0.09 -3.98,0.88 -4.78,-1.44c-0.83,-2.41 1.45,-2.97 2.95,-3.91c6.19,-3.85 6.36,-10.29 6.46,-16.38c0.25,-16.65 0.1,-33.31 0.12,-50.47m31.36,6.72c1.51,-0.68 3.08,-1.25 4.52,-2.05c9.45,-5.27 13.71,-15.57 11.17,-26.86c-2.19,-9.73 -9.38,-15.64 -19.94,-16.37c-7.42,-0.51 -9.28,1.11 -9.36,8.56c-0.1,9.13 -0.09,18.26 -0.07,27.4c0.02,11.23 1.09,12.04 12.43,9.7c0.16,-0.03 0.31,-0.1 1.25,-0.38z" fill="#000000" id="svg_9" opacity="1"/>
  <path d="m388.33,465.29c0.61,4.44 3.01,6.96 6.6,8.59c1.2,0.56 2.45,1.37 2.03,3.02c-0.44,1.74 -1.88,2.42 -3.47,2.17c-8.97,-1.43 -17.9,-0.68 -26.85,0.18c-1.99,0.2 -4.74,0.83 -5.58,-1.94c-0.79,-2.58 1.81,-3.12 3.37,-4.24c4.19,-3.02 5.35,-7.44 5.36,-12.29c0.03,-25.49 0.03,-50.98 0.04,-76.47c0,-2.67 -0.14,-5.34 -0.01,-8c0.28,-5.47 -1.2,-9.86 -6.68,-12.16c-1.22,-0.51 -2.45,-1.34 -1.97,-3.02c0.44,-1.53 1.8,-2.05 3.14,-2c16.73,0.58 33.66,-1.98 50.13,2.76c13.9,3.99 21.94,14.7 22.53,29.54c0.59,15.14 -7.71,27.29 -22.23,32.73c-6.65,2.5 -13.5,3.79 -20.56,3.2c-4.74,-0.4 -6.15,1.56 -6.06,6.01c0.23,10.5 0.14,21 0.21,31.92m13.5,-48.64c15.18,-2.44 18.33,-17.79 16.34,-29.03c-1.95,-11 -7.07,-16.32 -16.58,-18.05c-2.6,-0.48 -5.32,-0.29 -7.94,-0.69c-4.14,-0.62 -5.52,0.9 -5.5,5.12c0.05,12.97 -0.23,25.94 -0.49,38.91c-0.06,2.81 1.24,4.01 3.83,4.02c3.16,0.01 6.31,-0.13 10.34,-0.28z" fill="#000000" id="svg_10" opacity="1"/>
  <path d="m796.73,470.08c1.75,1.57 3.24,2.88 4.84,4.05c1.18,0.87 2.97,1.34 2.37,3.29c-0.63,2.04 -2.51,1.94 -4.17,1.81c-3.14,-0.24 -6.27,-0.79 -9.42,-0.86c-5.64,-0.12 -11.3,-0.28 -16.91,0.89c-1.49,0.31 -3.5,0.61 -4.37,-1.4c-0.83,-1.92 0.39,-3.19 1.83,-4.16c4.51,-3.05 5.73,-7.63 5.73,-12.63c0.04,-28.31 0.05,-56.63 -0.07,-84.95c-0.02,-4.95 -1.14,-9.67 -6.49,-11.93c-1.27,-0.54 -2.42,-1.41 -1.92,-3.04c0.42,-1.37 1.72,-1.4 2.89,-1.45c15.12,-0.52 30.23,-1.73 45.3,1.02c15.67,2.85 24.95,12.29 26.86,27.91c1.78,14.57 -5.83,28.16 -19.02,34.25c-7.58,3.5 -15.48,5.16 -23.78,4.45c-4.43,-0.37 -6.34,1.02 -6.16,5.81c0.33,8.98 0.14,17.99 0.16,26.98c0,3.38 0.59,6.62 2.33,9.96m14.66,-53.97c11.7,-4.24 13.73,-13.66 13.58,-24.58c-0.23,-17.2 -11.1,-23.32 -26.28,-22.56c-3.07,0.16 -4.41,1.6 -4.39,4.75c0.1,12.83 0.14,25.66 0.02,38.49c-0.04,3.96 1.93,5.27 5.46,5.48c3.72,0.23 7.28,-0.58 11.61,-1.58z" fill="#000000" id="svg_11" opacity="1"/>
  <path d="m585.74,261.89c12.75,-20.25 32.42,-28.38 53.52,-22.38c21.28,6.04 36.02,25.84 36.09,48.46c0.07,23.5 -10.69,40.89 -29.94,48.29c-26.74,10.29 -61.47,-2.67 -65.74,-40.24c-1.35,-11.91 0.28,-23.17 6.07,-34.13m20.76,-6.89c-3.32,3.37 -6.05,7.23 -7.43,11.72c-5.25,17.12 -4.33,33.9 4.38,49.71c11.93,21.65 40.47,17.27 50.12,-0.82c10.76,-20.17 5.91,-45.04 -8.57,-59.53c-11.52,-11.52 -26.18,-11.93 -38.5,-1.08z" fill="#000000" id="svg_12" opacity="1"/>
  <path d="m882.94,376.29c0.4,-4.92 -1.83,-6.4 -6.01,-6.03c-5.13,0.46 -10.27,0.65 -15.22,2.41c-4.3,1.53 -7.56,4.05 -9.51,8.25c-0.66,1.43 -1.17,3.6 -3.33,2.99c-2.04,-0.58 -1.47,-2.71 -1.53,-4.3c-0.21,-4.99 -0.16,-10 -0.59,-14.96c-0.39,-4.48 1.52,-5.9 5.75,-5.88c18.32,0.12 36.63,0.07 54.95,0.07c7.99,0 15.99,0.12 23.98,-0.12c4.28,-0.13 6.32,1.36 5.85,5.76c-0.69,6.33 0.57,12.86 -1.37,19.03c-2.86,0.07 -3.25,-1.77 -3.68,-3.28c-1.96,-6.83 -7.08,-9.37 -13.52,-9.82c-4.3,-0.31 -8.66,0.02 -12.98,-0.15c-3.55,-0.14 -4.66,1.61 -4.66,4.86c0.02,28.3 0,56.61 -0.03,84.92c0,6.08 1.56,11.2 7.8,13.75c1.22,0.5 2.49,1.38 2.08,3c-0.46,1.83 -2.13,2.02 -3.63,1.93c-9.64,-0.61 -19.26,-0.87 -28.87,0.58c-1.64,0.25 -3.55,0.15 -4.28,-1.76c-0.79,-2.07 0.88,-3.02 2.36,-3.8c5.55,-2.92 6.49,-7.95 6.48,-13.56c-0.05,-27.81 -0.03,-55.61 -0.04,-83.89z" fill="#000000" id="svg_13" opacity="1"/>
  <path d="m681.23,337.82c-2.25,-1.39 -1.64,-2.86 -0.21,-3.68c4.92,-2.83 4.99,-7.53 5,-12.24c0.05,-19.16 0.03,-38.32 0.07,-57.49c0,-2.49 0.17,-4.99 0.37,-7.48c0.45,-5.38 0.06,-10.39 -5.31,-13.48c-0.75,-0.43 -1.14,-1.2 -0.97,-2.25c1.03,-2.06 3.07,-1.48 4.79,-1.49c14.33,-0.05 28.66,0.1 42.99,-0.11c4.51,-0.07 5.99,1.58 5.43,5.89c-0.49,3.7 0.45,7.55 -0.65,10.98c-2,0.7 -2.77,-0.29 -3.18,-1.37c-1.91,-5.09 -5.89,-6.37 -10.81,-6.14c-2.16,0.1 -4.33,0.03 -6.49,0.06c-13.55,0.2 -10.56,-0.95 -11.63,11.33c-0.56,6.41 0.42,12.96 0.65,19.45c0.09,2.41 1.53,3.15 3.61,3.14c5.83,-0.03 11.67,-0.16 17.5,-0.11c2.97,0.02 4.33,-2.85 7.32,-4.02c2.28,6.37 0.59,12.18 -0.35,18.55c-6.61,-8.55 -15.5,-4.19 -23.32,-5.17c-3.25,-0.41 -4.97,0.81 -4.9,4.43c0.18,9.83 0.1,19.66 0.25,29.49c0.06,3.53 1.31,6.5 5.02,7.86c1.05,0.39 2.16,0.97 2.31,3.07c-4.1,2.41 -8.78,0.53 -13.15,0.87c-4.63,0.36 -9.32,0.05 -14.34,-0.09z" fill="#000000" id="svg_14" opacity="1"/>
 </g>
</svg>