<?xml version="1.0" standalone="no"?>
<!DOCTYPE svg PUBLIC "-//W3C//DTD SVG 20010904//EN"
 "http://www.w3.org/TR/2001/REC-SVG-20010904/DTD/svg10.dtd">
<svg version="1.0" xmlns="http://www.w3.org/2000/svg"
 width="1018.000000pt" height="122.000000pt" viewBox="0 0 1018.000000 122.000000"
 preserveAspectRatio="xMidYMid meet">

<g transform="translate(0.000000,122.000000) scale(0.100000,-0.100000)"
fill="#ffffffff" stroke="none">
<path d="M391 1094 c-79 -21 -149 -62 -212 -124 -68 -68 -108 -147 -122 -244
-31 -212 67 -393 261 -484 71 -33 85 -36 192 -40 122 -5 197 8 286 48 l44 19
0 124 c0 159 5 185 41 206 58 33 37 41 -106 41 -113 0 -135 -2 -135 -15 0 -8
5 -15 10 -15 6 0 22 -11 35 -25 24 -23 25 -30 25 -144 0 -120 0 -121 -27 -138
-21 -14 -48 -18 -128 -18 -95 0 -103 2 -163 34 -124 68 -182 167 -190 328 -3
74 0 105 17 160 66 214 285 298 501 190 51 -25 69 -40 83 -69 10 -21 23 -38
28 -38 5 0 9 38 9 84 l0 84 -32 11 c-127 41 -315 52 -417 25z"/>
<path d="M1245 988 c-275 -708 -273 -704 -328 -733 -20 -11 -35 -24 -34 -30 4
-11 211 -20 235 -10 12 4 10 11 -11 33 -35 36 -34 58 7 167 l33 90 138 0 139
0 43 -108 c46 -112 48 -141 12 -152 -11 -4 -18 -12 -16 -18 5 -17 259 -17 264
0 3 7 -6 17 -20 22 -14 5 -34 23 -47 40 -12 17 -92 208 -179 423 -105 263
-162 394 -173 396 -11 2 -27 -28 -63 -120z m45 -121 c0 -2 23 -63 50 -136 28
-73 50 -137 50 -142 0 -11 -210 -12 -210 -1 -1 17 95 282 102 282 5 0 8 -1 8
-3z"/>
<path d="M6602 1099 c-157 -26 -294 -153 -337 -313 -13 -49 -17 -88 -13 -160
4 -82 10 -105 41 -171 110 -231 361 -315 594 -200 167 83 261 270 233 467 -27
192 -159 333 -347 373 -76 16 -94 17 -171 4z m28 -440 c0 -370 -1 -380 -19
-377 -19 3 -20 17 -25 375 -6 397 -8 375 37 382 4 0 7 -170 7 -380z m80 -4 l0
-385 -25 0 -25 0 0 385 0 385 25 0 25 0 0 -385z m59 375 c17 -9 18 -31 15
-377 -4 -365 -5 -382 -36 -383 -5 0 -8 173 -8 385 0 212 3 385 6 385 3 0 13
-4 23 -10z m-209 -376 l0 -356 -32 28 c-87 72 -128 166 -136 305 -5 113 7 179
51 262 28 54 86 117 107 117 6 0 10 -134 10 -356z m323 297 c59 -66 80 -115
97 -233 20 -139 -26 -295 -110 -377 -23 -23 -46 -41 -51 -41 -5 0 -9 158 -9
355 0 342 1 355 18 346 10 -6 35 -28 55 -50z"/>
<path d="M8856 1064 c-8 -60 -8 -119 1 -127 3 -4 21 10 38 31 l33 37 96 3 96
4 0 -344 c0 -367 -2 -381 -50 -405 -14 -7 -25 -18 -25 -25 0 -19 276 -19 283
0 2 7 -9 17 -26 23 -16 5 -34 21 -41 35 -7 17 -11 133 -11 369 l0 345 85 0
c102 0 151 -17 161 -55 13 -51 29 -19 32 65 l3 82 -28 -7 c-15 -4 -140 -10
-276 -12 -224 -4 -299 1 -348 21 -13 6 -17 -2 -23 -40z"/>
<path d="M2662 1092 c-68 -3 -74 -5 -84 -30 -7 -15 -74 -162 -150 -326 l-137
-300 -30 65 c-16 35 -86 181 -155 324 l-125 260 -77 3 c-81 3 -116 -10 -73
-26 54 -21 63 -43 56 -144 -9 -128 -57 -576 -66 -613 -4 -18 -20 -38 -39 -50
-59 -37 -43 -46 80 -43 74 2 113 7 115 15 2 6 -5 14 -17 18 -47 15 -50 36 -34
215 8 91 20 212 27 270 l13 105 37 -80 c168 -357 252 -525 264 -525 7 0 38 53
69 118 97 203 206 436 215 461 5 13 12 22 14 19 4 -4 35 -293 50 -466 6 -72 6
-73 -24 -101 -17 -16 -31 -34 -31 -40 0 -15 252 -11 257 4 1 6 -10 18 -26 27
-36 20 -46 53 -61 208 -6 63 -20 198 -30 300 -26 241 -25 255 3 284 13 13 30
25 38 28 32 12 -10 23 -79 20z"/>
<path d="M2873 1088 c-6 -11 6 -28 21 -28 7 0 20 -8 29 -18 15 -17 17 -58 17
-386 l0 -367 -25 -24 c-13 -14 -29 -25 -35 -25 -5 0 -10 -7 -10 -15 0 -13 34
-15 248 -15 l249 0 11 64 c7 35 12 73 12 85 0 32 -24 25 -43 -14 -28 -58 -54
-69 -158 -63 -50 3 -96 11 -102 17 -13 13 -22 230 -13 295 l7 46 88 0 c92 0
108 -7 124 -53 4 -10 13 -17 20 -15 8 3 13 33 15 91 2 72 0 87 -12 87 -9 0
-20 -9 -26 -20 -10 -18 -21 -20 -115 -20 l-105 0 0 155 0 156 103 -3 102 -3
15 -32 c8 -18 23 -33 33 -33 15 0 17 10 17 70 l0 69 -231 3 c-127 2 -233 0
-236 -4z"/>
<path d="M4920 1083 c0 -7 13 -19 29 -27 16 -9 31 -26 35 -38 3 -13 6 -175 6
-361 0 -368 -3 -390 -55 -403 -14 -3 -25 -12 -25 -20 0 -11 28 -14 145 -14
117 0 145 3 145 14 0 7 -14 19 -31 26 -17 7 -35 24 -40 37 -5 13 -9 85 -9 159
l0 134 58 0 c167 0 291 81 322 211 34 142 -52 263 -207 288 -96 16 -373 11
-373 -6z m317 -55 c65 -16 118 -71 132 -138 30 -140 -49 -240 -191 -240 l-58
0 0 188 c0 104 3 192 7 195 10 10 59 8 110 -5z"/>
<path d="M5550 1085 c0 -8 5 -15 10 -15 6 0 22 -11 35 -25 l25 -24 0 -350 c0
-204 -4 -360 -10 -375 -5 -15 -21 -31 -35 -38 -14 -6 -25 -17 -25 -25 0 -10
31 -13 145 -13 121 0 145 2 145 15 0 8 -11 17 -24 21 -51 12 -58 33 -64 178
-2 74 -2 140 0 148 4 9 21 12 61 10 l55 -4 92 -134 c123 -179 182 -228 290
-241 54 -6 120 3 120 17 0 5 -21 18 -46 29 -62 28 -183 152 -268 273 l-67 97
42 38 c87 79 113 197 64 300 -48 104 -134 133 -393 133 -128 0 -152 -2 -152
-15z m307 -57 c96 -24 154 -124 134 -232 -18 -96 -71 -138 -171 -134 l-65 3
-3 125 c-2 69 0 153 3 188 6 58 8 62 31 62 14 0 46 -5 71 -12z"/>
<path d="M9751 1088 c-50 -14 -116 -62 -140 -102 -31 -49 -37 -122 -17 -184
20 -59 68 -112 156 -172 131 -89 170 -138 170 -213 0 -95 -80 -154 -174 -127
-60 16 -99 56 -124 123 -32 84 -47 69 -43 -43 2 -84 5 -97 24 -112 53 -41 202
-56 281 -29 54 19 122 84 142 136 11 31 15 65 12 113 -6 107 -24 129 -228 279
-103 77 -132 141 -96 212 53 101 224 81 261 -30 7 -19 18 -34 26 -34 11 0 13
15 11 75 -2 41 -8 79 -12 84 -13 13 -121 36 -170 35 -25 0 -60 -5 -79 -11z"/>
<path d="M7210 1075 c0 -8 7 -15 15 -15 8 0 25 -10 36 -21 20 -20 21 -28 15
-123 -7 -106 -38 -403 -57 -544 -10 -76 -14 -85 -45 -110 -19 -15 -34 -30 -34
-34 0 -5 52 -8 115 -8 124 0 142 9 85 42 -29 17 -30 19 -30 95 1 86 35 461 43
470 7 6 26 -31 167 -332 62 -132 119 -247 127 -255 18 -20 9 -38 165 307 73
161 133 291 135 290 3 -4 32 -283 42 -416 10 -123 4 -155 -28 -166 -12 -3 -21
-13 -21 -21 0 -11 23 -14 125 -14 105 0 125 2 125 15 0 9 -11 21 -25 27 -35
16 -39 37 -75 384 -37 359 -37 380 7 410 18 12 29 24 26 28 -4 3 -39 6 -78 6
l-72 0 -60 -132 c-187 -417 -228 -506 -233 -502 -3 3 -73 146 -155 317 l-151
312 -82 3 c-68 2 -82 0 -82 -13z"/>
<path d="M8250 1075 c0 -8 6 -15 14 -15 8 0 24 -12 35 -26 20 -26 21 -38 21
-370 0 -199 -4 -353 -10 -368 -5 -15 -21 -31 -35 -38 -14 -6 -25 -17 -25 -25
0 -10 29 -13 135 -13 112 0 135 2 135 15 0 8 -13 21 -29 29 -16 9 -31 23 -35
31 -3 9 -6 79 -6 156 l0 139 75 0 c179 0 295 102 295 260 0 117 -57 191 -173
225 -73 22 -397 22 -397 0z m333 -59 c61 -25 117 -111 117 -179 0 -47 -25
-112 -56 -142 -37 -37 -115 -61 -164 -50 l-30 7 0 189 0 189 50 0 c28 0 65 -6
83 -14z"/>
<path d="M3872 936 c-130 -43 -207 -154 -205 -297 1 -86 31 -156 90 -210 64
-58 114 -79 199 -79 96 0 158 23 215 80 65 65 92 140 87 241 -5 85 -29 138
-90 196 -70 68 -204 99 -296 69z m78 -291 c0 -220 -2 -255 -15 -255 -13 0 -15
35 -15 255 0 220 2 255 15 255 13 0 15 -35 15 -255z m54 2 c0 -228 -2 -252
-17 -255 -16 -3 -17 18 -17 252 0 237 1 256 18 256 16 0 17 -19 16 -253z
m-104 -2 c0 -181 -3 -245 -12 -245 -26 0 -94 87 -112 144 -37 118 -9 258 64
320 60 50 60 51 60 -219z m195 202 c101 -100 101 -304 0 -404 -23 -24 -47 -43
-54 -43 -7 0 -11 33 -12 103 0 56 -3 166 -5 245 -5 165 -1 171 71 99z"/>
<path d="M4280 930 c0 -5 4 -10 9 -10 5 0 17 -7 25 -16 14 -13 16 -51 16 -259
0 -208 -2 -246 -16 -259 -8 -9 -20 -16 -25 -16 -5 0 -9 -4 -9 -10 0 -6 40 -10
100 -10 60 0 100 4 100 10 0 6 -4 10 -10 10 -5 0 -19 9 -30 20 -18 18 -20 33
-20 135 l0 115 54 0 c68 0 85 -7 97 -37 14 -38 29 -17 29 41 0 61 -7 72 -31
51 -12 -12 -34 -15 -80 -13 l-64 3 0 100 0 100 58 3 c62 3 107 -15 107 -43 0
-8 7 -15 15 -15 12 0 15 13 15 55 l0 55 -170 0 c-107 0 -170 -4 -170 -10z"/>
</g>
</svg>
